<svg width="400" height="400" viewBox="0 0 400 400" fill="none" xmlns="http://www.w3.org/2000/svg">
<g clip-path="url(#clip0_2001_2145)">
<path d="M400 0H0V400H400V0Z" fill="#09090B"/>
<path d="M172.59 277.571C172.992 276.643 173.853 275.541 174.485 275.077C175.403 274.497 180.399 274.323 224.15 274.323L227.595 277.803V326.52L224.265 330H175.346L172.188 327.216L172.016 303.205C171.901 284.762 172.016 278.847 172.59 277.571Z" fill="#379936"/>
<path d="M105.871 277.919C105.871 277.513 106.56 276.527 107.307 275.773L108.685 274.323H133.259C151.69 274.381 158.063 274.555 158.752 275.077C159.269 275.483 159.958 276.353 160.302 277.049C160.819 278.035 160.991 285.342 161.049 326.81L157.948 330H133.661C118.56 330 108.857 329.768 108.168 329.42C107.536 329.13 106.675 327.97 106.273 326.984C105.699 325.476 105.527 319.85 105.641 301.871C105.699 289.112 105.814 278.325 105.871 277.919Z" fill="#379936"/>
<path d="M238.618 210.41L240.226 208.728L241.833 207.047H266.178C285.642 207.047 290.695 207.221 291.614 207.801C292.245 208.264 293.107 209.366 293.509 210.294C294.083 211.57 294.198 217.486 293.911 259.824L290.466 262.898L266.236 262.782C247.92 262.724 241.661 262.55 240.8 262.028C240.168 261.622 239.422 260.694 239.077 259.998C238.733 259.128 238.503 249.964 238.618 210.41Z" fill="#379936"/>
<path d="M172.188 209.83L173.796 208.438L175.403 207.047H224.15L227.595 210.526V259.244L224.437 262.724L175.231 263.014L171.901 259.244L172.188 209.83Z" fill="#379936"/>
<path d="M106.273 209.714C106.503 209.134 107.364 208.264 108.168 207.859C109.316 207.279 114.828 207.105 157.547 207.047L160.992 210.526V259.824L159.556 261.274C158.81 262.086 157.719 262.724 157.145 262.782C156.571 262.84 145.546 262.782 132.57 262.724C119.594 262.666 108.57 262.376 108.053 262.086C107.479 261.796 106.79 261.042 106.446 260.404C106.101 259.708 105.871 249.906 105.814 235.059C105.814 221.72 105.986 210.352 106.273 209.714Z" fill="#379936"/>
<path d="M172.59 143.018C172.992 142.09 173.968 140.988 174.772 140.582C175.92 139.944 181.03 139.828 224.667 140.06L227.308 142.728L227.481 166.913C227.595 185.53 227.481 191.503 226.906 192.779C226.505 193.707 225.471 194.809 224.61 195.215C223.289 195.853 218.351 196.027 175.346 195.737L172.188 192.547L172.016 168.595C171.901 150.21 172.016 144.294 172.59 143.018Z" fill="#379936"/>
<path d="M105.871 142.96L107.593 141.394L109.316 139.77H157.546L160.991 143.25V192.547L158.235 195.737H108.741L105.583 192.547L105.871 142.96Z" fill="#379936"/>
<path d="M239.079 75.3935C239.366 74.7555 240.514 73.8276 241.547 73.3636C243.098 72.6676 247.174 72.5516 290.754 72.7836L293.912 75.9735L294.084 99.9262C294.199 118.311 294.084 124.227 293.51 125.503C293.108 126.431 292.247 127.533 291.615 127.997C290.696 128.577 285.701 128.751 241.949 128.751L238.504 125.271V100.912C238.504 85.8329 238.734 76.0895 239.079 75.3935Z" fill="#379936"/>
<path d="M173.222 74.8135C173.796 74.0596 174.829 73.3056 175.518 73.0156C176.207 72.7836 187.002 72.5516 199.461 72.4937C213.356 72.4937 222.887 72.7256 223.978 73.0736C225.184 73.4216 226.217 74.2916 226.734 75.3935C227.481 76.8434 227.595 80.9612 227.595 125.271L224.265 128.751H199.92C180.456 128.751 175.403 128.577 174.485 127.997C173.853 127.533 172.992 126.431 172.59 125.503C172.016 124.227 171.901 118.311 172.016 99.9842C172.188 77.7714 172.246 75.9735 173.222 74.8135Z" fill="#379936"/>
<path d="M119.651 73.1316C121.718 72.1457 125.335 70.9857 127.689 70.5797C130.043 70.1158 133.431 69.8838 135.153 70.0578C136.876 70.1738 139.977 70.7537 142.044 71.3337C144.111 71.9717 147.326 73.3636 149.221 74.5235C151.115 75.6255 153.929 77.9453 155.537 79.6853C157.087 81.3672 159.211 84.325 160.245 86.1809C161.221 88.0368 162.484 91.1686 162.943 93.0825C163.46 94.9964 163.862 98.3603 163.862 100.622C163.862 102.826 163.46 106.19 163.001 107.988C162.541 109.844 161.336 112.975 160.36 114.947C159.326 116.977 156.972 120.225 155.02 122.255C152.608 124.807 150.197 126.605 147.211 128.113C144.57 129.505 141.24 130.607 138.599 131.071C135.957 131.477 132.857 131.651 130.56 131.419C128.493 131.187 125.278 130.491 123.383 129.795C121.488 129.157 118.503 127.707 116.78 126.547C115.058 125.445 112.474 123.241 111.038 121.791C109.603 120.283 107.651 117.499 106.617 115.643C105.641 113.729 104.378 110.656 103.919 108.742C103.402 106.828 103 103.29 103 100.912C103 98.5343 103.402 95.0544 103.861 93.1985C104.321 91.4006 105.526 88.2688 106.502 86.2389C107.593 84.093 109.833 81.1352 112.129 78.8153C114.483 76.4374 117.297 74.2915 119.651 73.1316Z" fill="#C91517"/>
</g>
<defs>
<clipPath id="clip0_2001_2145">
<rect width="400" height="400" rx="64" fill="white"/>
</clipPath>
</defs>
</svg>
