<svg width="27" height="36" viewBox="0 0 27 36" fill="none" xmlns="http://www.w3.org/2000/svg">
<path d="M9.73287 28.7406C9.78909 28.6121 9.90954 28.4595 9.99787 28.3953C10.1264 28.315 10.825 28.2909 16.9441 28.2909L17.4259 28.7727V35.5182L16.9602 36H10.1183L9.67666 35.6145L9.65257 32.29C9.63651 29.7363 9.65257 28.9172 9.73287 28.7406Z" fill="#379936"/>
<path d="M0.401564 28.7887C0.401564 28.7325 0.497928 28.596 0.602323 28.4916L0.795051 28.2909H4.23204C6.80978 28.2989 7.70115 28.323 7.79751 28.3953C7.86978 28.4515 7.96615 28.5719 8.01433 28.6683C8.0866 28.8048 8.11069 29.8166 8.11872 35.5583L7.68509 36H4.28825C2.17627 36 0.819142 35.9679 0.722778 35.9197C0.634444 35.8795 0.513989 35.7189 0.457777 35.5824C0.377473 35.3736 0.353382 34.5947 0.369443 32.1053C0.377473 30.3386 0.393534 28.845 0.401564 28.7887Z" fill="#379936"/>
<path d="M18.9676 19.4414L19.1924 19.2086L19.4173 18.9757H22.8221C25.5444 18.9757 26.2511 18.9998 26.3796 19.0801C26.4679 19.1443 26.5884 19.2969 26.6446 19.4254C26.7249 19.602 26.7409 20.4211 26.7008 26.2833L26.219 26.7089L22.8302 26.6928C20.2685 26.6848 19.3932 26.6607 19.2727 26.5884C19.1844 26.5322 19.08 26.4037 19.0318 26.3074C18.9836 26.1869 18.9515 24.9181 18.9676 19.4414Z" fill="#379936"/>
<path d="M9.67663 19.3611L9.90148 19.1684L10.1263 18.9757H16.9441L17.4259 19.4575V26.203L16.9842 26.6848L10.1022 26.725L9.63647 26.203L9.67663 19.3611Z" fill="#379936"/>
<path d="M0.457797 19.3451C0.489919 19.2648 0.610374 19.1443 0.722799 19.0881C0.883406 19.0078 1.65432 18.9837 7.62889 18.9757L8.11071 19.4575V26.2833L7.90996 26.484C7.80556 26.5965 7.65299 26.6848 7.57268 26.6928C7.49238 26.7009 5.95055 26.6928 4.13569 26.6848C2.32084 26.6768 0.779011 26.6366 0.706738 26.5965C0.626435 26.5563 0.530071 26.4519 0.481888 26.3636C0.433706 26.2672 0.401585 24.9101 0.393555 22.8543C0.393555 21.0074 0.417646 19.4334 0.457797 19.3451Z" fill="#379936"/>
<path d="M9.73287 10.1102C9.78909 9.98169 9.9256 9.82911 10.038 9.7729C10.1986 9.68457 10.9133 9.66851 17.0164 9.70063L17.3858 10.07L17.4099 13.4187C17.4259 15.9964 17.4099 16.8235 17.3296 17.0002C17.2734 17.1287 17.1288 17.2813 17.0084 17.3375C16.8237 17.4258 16.1331 17.4499 10.1183 17.4098L9.67666 16.9681L9.65257 13.6516C9.63651 11.1059 9.65257 10.2868 9.73287 10.1102Z" fill="#379936"/>
<path d="M0.40148 10.1021L0.64239 9.88531L0.8833 9.66046H7.62879L8.11061 10.1423V16.9681L7.72515 17.4097H0.802997L0.361328 16.9681L0.40148 10.1021Z" fill="#379936"/>
<path d="M19.032 0.746791C19.0721 0.658458 19.2327 0.529972 19.3773 0.465729C19.5941 0.369365 20.1642 0.353305 26.2593 0.385426L26.7009 0.827095L26.725 4.14363C26.7411 6.68925 26.725 7.50834 26.6447 7.68501C26.5885 7.81349 26.4681 7.96607 26.3797 8.03031C26.2512 8.11062 25.5526 8.13471 19.4335 8.13471L18.9517 7.65289V4.28014C18.9517 2.19225 18.9838 0.843156 19.032 0.746791Z" fill="#379936"/>
<path d="M9.82121 0.66649C9.90151 0.562095 10.0461 0.457701 10.1424 0.417549C10.2388 0.385428 11.7485 0.353306 13.4911 0.345276C15.4344 0.345276 16.7675 0.377397 16.92 0.425579C17.0887 0.473761 17.2332 0.594217 17.3055 0.746793C17.4099 0.947552 17.4259 1.51771 17.4259 7.65289L16.9602 8.13471H13.5553C10.833 8.13471 10.1264 8.11062 9.99787 8.03031C9.90954 7.96607 9.78909 7.8135 9.73287 7.68501C9.65257 7.50834 9.63651 6.68925 9.65257 4.15166C9.67666 1.07604 9.68469 0.827097 9.82121 0.66649Z" fill="#379936"/>
<path d="M2.3288 0.433607C2.61789 0.297091 3.1238 0.136484 3.45305 0.0802717C3.78229 0.0160289 4.25608 -0.0160924 4.49699 0.0079986C4.7379 0.0240593 5.17154 0.104363 5.46063 0.184666C5.74973 0.273 6.19943 0.465728 6.46443 0.626335C6.72943 0.778912 7.12291 1.10013 7.34776 1.34104C7.56458 1.57392 7.86171 1.98346 8.00625 2.24043C8.14277 2.49741 8.31944 2.93104 8.38368 3.19604C8.45595 3.46105 8.51216 3.92681 8.51216 4.23999C8.51216 4.54514 8.45595 5.0109 8.39171 5.25984C8.32747 5.51681 8.15883 5.95045 8.02231 6.22348C7.87777 6.50455 7.54852 6.95425 7.27549 7.23531C6.93822 7.58864 6.60094 7.83758 6.18336 8.04637C5.81397 8.2391 5.34821 8.39168 4.97881 8.45592C4.60942 8.51213 4.17578 8.53622 3.85457 8.5041C3.56547 8.47198 3.11577 8.37562 2.85077 8.27925C2.58577 8.19092 2.16819 7.99016 1.92728 7.82955C1.68637 7.67698 1.32501 7.37182 1.12425 7.17106C0.92349 6.96228 0.650458 6.57682 0.505912 6.31985C0.369396 6.05485 0.192728 5.62924 0.128486 5.36424C0.0562124 5.09924 0 4.60939 0 4.28014C0 3.9509 0.0562124 3.46908 0.120455 3.21211C0.184698 2.96316 0.353335 2.52953 0.489851 2.24846C0.642428 1.95134 0.955611 1.54179 1.27682 1.22058C1.60607 0.891336 1.99956 0.594214 2.3288 0.433607Z" fill="#C91517"/>
</svg>
